<svg xmlns="http://www.w3.org/2000/svg" viewBox="0 0 274.99 274.99"><defs><style>.cls-1{fill:#0b121e;}.cls-2{fill:#315d9a;}.cls-3{fill:#fff;}</style></defs><g id="Capa_2" data-name="Capa 2"><g id="Explicacion"><circle class="cls-1" cx="137.5" cy="137.5" r="137.5"/><circle class="cls-2" cx="137.5" cy="137.5" r="121.87"/><path class="cls-1" d="M219.34,137.28c0-1.39-.11-2.79-.22-4.18s-.26-2.78-.45-4.17A71.91,71.91,0,0,0,207.58,99a80.63,80.63,0,0,0-21.84-22.47,5.63,5.63,0,0,1-1.42-.9l1.42.9-5.68-3.81A82.26,82.26,0,0,0,155.72,57.4,76.45,76.45,0,0,0,127,51.71a76.09,76.09,0,0,0-27.67,5.8A72.84,72.84,0,0,0,76.51,72.36a69,69,0,0,0-15.4,22.22,67.63,67.63,0,0,0-5.47,28.13,68.29,68.29,0,0,0,2.85,21.07,75.64,75.64,0,0,0,8.61,19A81.4,81.4,0,0,0,80.4,178.8a76.16,76.16,0,0,0,17.17,12.12l5,3.36-.24-.22,2.37,1.56a57,57,0,0,0,12.27,7.14L109,213l1.29.82L124,223.28l49.3-1.21q-2.64-3.19-6-6.94t-6.22-6.94a67.68,67.68,0,0,0,24.1-8.72,71.25,71.25,0,0,0,18.58-15.91,68.84,68.84,0,0,0,11.8-21.32A70.43,70.43,0,0,0,219.34,137.28Zm-30-8.27a51.84,51.84,0,0,1-6,22.44,49.4,49.4,0,0,1-9.24,12.39c-2.86,2.73-6.23,5.52-10.18,6.39-4.26.94-7-1.14-9.73-4.2l-14.43-16.25-2.33-2.63q-17.34-19.49-34.72-38.92a44.32,44.32,0,0,1-4-5,7.58,7.58,0,0,1-1.37-3.92,6.67,6.67,0,0,1,1.3-3.87,29.33,29.33,0,0,1,4.07-4.64l3.41-3.34c1.21-1,2.63-2,4.23-3s3-1.89,4.24-2.54a59.73,59.73,0,0,1,36.16-6,43.48,43.48,0,0,1,23.34,11,46.09,46.09,0,0,1,11.38,18.33A65.79,65.79,0,0,1,189.36,129Z"/><path class="cls-3" d="M203.8,117.17A72.19,72.19,0,0,0,195,91.33a77.1,77.1,0,0,0-17-20.64,81.07,81.07,0,0,0-23-13.75,75.05,75.05,0,0,0-27-5.15,74.82,74.82,0,0,0-26.85,5.55,68.51,68.51,0,0,0-37.27,36.4A65.84,65.84,0,0,0,58.46,121a68.5,68.5,0,0,0,5.09,26.87,77.76,77.76,0,0,0,14,22.57A78.78,78.78,0,0,0,98.6,187a72.26,72.26,0,0,0,26.15,8.44l-12,14.95,44.41-1.09-12-13.67a69.84,69.84,0,0,0,26.07-9.36A70.9,70.9,0,0,0,191,168.56a66.27,66.27,0,0,0,11.4-23.78A71.14,71.14,0,0,0,203.8,117.17ZM70.65,150.34l24.46,27.81A60.45,60.45,0,0,1,70.65,150.34ZM104,182.61,68.47,144.69a70.16,70.16,0,0,1-2.8-11.79l46.92,52.65A72.85,72.85,0,0,1,104,182.61Zm15.64,4.51L65.05,127.65c-.18-2.18-.28-4.4-.28-6.65,0-.52,0-1,0-1.54l62.83,68.7Q123.53,187.82,119.64,187.12Zm16.21,1.38c-1.11,0-2.2,0-3.29-.07L65.15,114.06a62.83,62.83,0,0,1,1.16-7l72.42,81.4C137.77,188.47,136.81,188.5,135.85,188.5Zm8.25-.47L67.49,102.55c.47-1.59,1-3.16,1.58-4.7l80.37,89.4C147.68,187.58,145.9,187.83,144.1,188Zm9.58-1.67L70.86,93.69q1.1-2.37,2.37-4.64l86.17,95.64C157.53,185.31,155.62,185.88,153.68,186.36Zm24.75-22.9c-2.41,2.46-5.17,4.41-7.77,6.65a18.66,18.66,0,0,1-8.31,2.53,26.6,26.6,0,0,1-6.08-1.13q-4.46-1.17-33.41-33.85T88.17,98.73q-5.74-6.26-5.6-9.87t5.83-9.1l3.41-3.35a79.17,79.17,0,0,1,8.7-5.56,60.28,60.28,0,0,1,48.09-3.28,63.22,63.22,0,0,1,10.7,4.62,58.32,58.32,0,0,1,9.82,6.75,62.38,62.38,0,0,1,15.1,17.77C196.19,117.51,195.72,145.74,178.43,163.46Z"/></g></g></svg>